<?xml version="1.0" encoding="utf-8"?>
<svg viewBox="0 0 256 256" xmlns="http://www.w3.org/2000/svg" xmlns:bx="https://boxy-svg.com">
  <path d="M 211.162 370.405 Q 212.71 368.752 214.258 370.405 L 222.063 378.742 Q 223.611 380.395 220.515 380.395 L 204.905 380.395 Q 201.809 380.395 203.357 378.742 Z" style="fill: rgb(204, 0, 255); stroke-width: 0.5px; stroke: rgba(0, 0, 0, 0.5); transform-origin: 128.749px 222.42px;" transform="matrix(-1, 0, 0, -1, 0.000007674042, 0.000013257265)" bx:shape="triangle 201.809 368.752 21.802 11.643 0.5 0.142 1@35f300a6"/>
  <ellipse style="paint-order: fill; fill-rule: nonzero; stroke-width: 0.5px; stroke: rgba(0, 0, 0, 0.43); fill: rgb(0, 231, 219);" cx="45.031" cy="38.317" rx="31.365" ry="31.365" transform="matrix(0.9999999999999999, 0, 0, 0.9999999999999999, 0, 0)"/>
  <path d="M 211.158 370.815 Q 212.706 369.162 214.254 370.815 L 222.059 379.152 Q 223.607 380.805 220.511 380.805 L 204.901 380.805 Q 201.805 380.805 203.353 379.152 Z" style="stroke: rgb(0, 0, 0); stroke-width: 0px; fill: rgb(0, 231, 219); transform-origin: 128.749px 222.42px;" transform="matrix(-1, 0, 0, -1, 0.000007674043, 0.000013257292)" bx:shape="triangle 201.805 369.162 21.802 11.643 0.5 0.142 1@9f52242a"/>
  <g transform="matrix(0.06671199202537537, 0, 0, 0.06671199202537537, 24.444866908933705, 16.72977115898641)" style="">
    <path d="M593.797,253.06L328.791,54.73c-13.576-10.171-32.237-10.171-45.825,0l-107.177,80.205v-19.351 c0-21.108-17.12-38.24-38.24-38.24h-35.347c-21.123,0-38.24,17.132-38.24,38.24v103.032L15.332,255.02 C2.14,264.885-3.24,282.081,1.96,297.709c5.2,15.628,19.821,26.169,36.29,26.169h25.725v202.775c0,21.122,17.12,38.24,38.24,38.24 h407.325c21.122,0,38.239-17.12,38.239-38.24V323.878h25.723c0.09,0,0.165,0,0.255,0c21.122,0,38.24-17.12,38.24-38.24 C611.987,271.862,604.709,259.79,593.797,253.06z M403.131,386.149c0,43.632-29.623,70.172-73.575,75.64v17.527 c0,13.016-10.54,23.568-23.568,23.568c-13.027,0-23.583-10.567-23.583-23.568v-19.478c-22.346-4.207-44.104-12.914-63.289-26.641 c-6.03-4.231-10.261-12.034-10.261-20.522c0-14.149,11.306-25.099,25.468-25.099c7.075,0,12.007,2.448,15.551,4.933 c18.789,13.793,39.286,22.281,63.353,22.281c22.295,0,35.755-8.833,35.755-23.352v-0.714c0-13.78-8.488-20.841-49.905-31.485 c-49.866-12.722-82.089-26.539-82.089-75.742v-0.714c0-38.305,26.373-65.366,65.429-72.567v-18.458 c0-13.027,10.555-23.594,23.583-23.594c13.028,0,23.571,10.555,23.571,23.594v18.624c19.427,3.187,37.093,9.763,52.683,19.694 c6.043,3.493,12.059,10.963,12.059,21.582c0,14.137-11.332,25.125-25.481,25.125c-5.329,0-9.548-1.416-13.78-3.913 c-18.074-10.592-35.054-16.634-52.072-16.634c-20.867,0-31.828,9.56-31.828,21.581v0.726c0,16.265,10.606,21.582,53.436,32.556 c50.223,13.091,78.559,31.153,78.559,74.301v0.753L403.131,386.149L403.131,386.149z" style="fill: rgb(255, 255, 255);"/>
  </g>
</svg>