<?xml version="1.0" encoding="utf-8"?>
<svg viewBox="0 0 256 256" xmlns="http://www.w3.org/2000/svg" xmlns:bx="https://boxy-svg.com">
  <path d="M 211.162 370.405 Q 212.71 368.752 214.258 370.405 L 222.063 378.742 Q 223.611 380.395 220.515 380.395 L 204.905 380.395 Q 201.809 380.395 203.357 378.742 Z" style="fill: rgb(204, 0, 255); stroke-width: 0.5px; stroke: rgba(0, 0, 0, 0.5); transform-origin: 128.749px 222.42px;" transform="matrix(-1, 0, 0, -1, 0.000007674042, 0.000013257265)" bx:shape="triangle 201.809 368.752 21.802 11.643 0.5 0.142 1@35f300a6"/>
  <ellipse style="paint-order: fill; fill-rule: nonzero; fill: rgb(204, 0, 255); stroke-width: 0.5px; stroke: rgba(0, 0, 0, 0.43);" cx="45.031" cy="38.317" rx="31.365" ry="31.365" transform="matrix(1, 0, 0, 1, 0, -5.684341886080802e-14)"/>
  <g style="" transform="matrix(0.17558300495147705, 0, 0, 0.17558300495147705, 22.86831542457088, 15.548387990843878)">
    <g>
      <path d="M246,102.2c0,11.1-6.1,20.7-15.1,25.8c0.2,0.6,0.4,1.2,0.4,1.9v99.6c0,3.1-2.5,5.5-5.5,5.5H222h-33.2h-3.7H70.9h-3.7H34h-3.7c-3.1,0-5.5-2.5-5.5-5.5v-99.6c0-0.7,0.2-1.3,0.4-1.9c-9-5.1-15.1-14.7-15.1-25.8h1.8c-1-1.3-1.5-3.1-1.1-4.9l17.7-69.7v-1c0-3.1,2.5-5.5,5.5-5.5h188.1c3.1,0,5.5,2.5,5.5,5.5v1l17.7,69.7c0.5,1.8,0,3.5-1.1,4.9H246L246,102.2z M179.6,220.2v-51.6H76.4v51.6L179.6,220.2L179.6,220.2z M39.5,220.2h22.1V163v-3.7c0-3.1,2.5-5.5,5.5-5.5h3.7h114.3h3.7c3.1,0,5.5,2.5,5.5,5.5v3.7v57.2h22.1v-88.5c-8.8,0-16.7-3.9-22.1-10c-5.4,6.1-13.3,10-22.1,10c-8.8,0-16.7-3.9-22.1-10c-5.4,6.1-13.3,10-22.1,10c-8.8,0-16.7-3.9-22.1-10c-5.4,6.1-13.3,10-22.1,10c-8.8,0-16.7-3.9-22.1-10c-5.4,6.1-13.3,10-22.1,10L39.5,220.2L39.5,220.2z M231.7,101.1l-16.6-65.3H40.8l-16.6,65.3c-0.1,0.4-0.3,0.7-0.5,1h0.9c0,8.1,6.6,14.8,14.8,14.8c8.1,0,14.8-6.6,14.8-14.8c0-4.1,3.3-7.4,7.4-7.4c4.1,0,7.4,3.3,7.4,7.4c0,8.1,6.6,14.8,14.8,14.8c8.2,0,14.8-6.6,14.8-14.8c0-4.1,3.3-7.4,7.4-7.4s7.4,3.3,7.4,7.4c0,8.1,6.6,14.8,14.8,14.8c8.1,0,14.8-6.6,14.8-14.8c0-4.1,3.3-7.4,7.4-7.4c4.1,0,7.4,3.3,7.4,7.4c0,8.1,6.6,14.8,14.8,14.8s14.8-6.6,14.8-14.8c0-4.1,3.3-7.4,7.4-7.4c4.1,0,7.4,3.3,7.4,7.4c0,8.1,6.6,14.8,14.8,14.8c8.1,0,14.8-6.6,14.8-14.8h0.9C232,101.8,231.8,101.5,231.7,101.1z" style="fill: rgb(255, 255, 255); paint-order: stroke; stroke: rgba(0, 0, 0, 0.15); stroke-width: 5.69531px;"/>
    </g>
  </g>
  <path d="M 211.158 370.815 Q 212.706 369.162 214.254 370.815 L 222.059 379.152 Q 223.607 380.805 220.511 380.805 L 204.901 380.805 Q 201.805 380.805 203.353 379.152 Z" style="stroke: rgb(0, 0, 0); fill: rgb(204, 0, 255); stroke-width: 0px; transform-origin: 128.749px 222.42px;" transform="matrix(-1, 0, 0, -1, 0.000007674043, 0.000013257292)" bx:shape="triangle 201.805 369.162 21.802 11.643 0.5 0.142 1@9f52242a"/>
</svg>